TITLE "ゴッドタン 芸人マジ歌選手権レボリューション"
CATALOG 4524106110013
REM DISCID 18026003
FILE "ゴッドタン 芸人マジ歌選手権レボリューション.flac" WAVE
  TRACK 01 AUDIO
    TITLE "USA"
    PERFORMER "角田晃広"
    INDEX 01 00:00:00
  TRACK 02 AUDIO
    TITLE "オラと母ちゃんの 1 週間"
    PERFORMER "劇団ひとり"
    INDEX 00 03:39:72
    INDEX 01 03:40:69
  TRACK 03 AUDIO
    TITLE "さくら"
    PERFORMER "日村勇紀"
    INDEX 00 06:03:25
    INDEX 01 06:05:22
